<?xml version="1.0" standalone="no"?>
<svg xmlns:xlink="http://www.w3.org/1999/xlink" xmlns="http://www.w3.org/2000/svg" class="vtree" width="960" height="800"><style>
.vtree-node text { font: 14px sans-serif; }
.vtree-link { fill: none; stroke: #888; stroke-width: 2px; fill:}
.vtree-table { stroke-width: 2px; stroke: steelblue; }
path.vtree-table { fill: white; }
g.vtree-node rect { fill: white; stroke: black; stroke-width: 1px; }
g.vtree-node rect.number-text { fill: #d8f0ed; }
g.vtree-node rect.string-text { fill: #e7f0db; }
g.vtree-node rect.boolean-text { fill: #e1d8f0; }
g.vtree-node rect.null-text { fill: #3776ff; }
</style><g class="vtree-root" transform="translate(170.1842901136577,281.738609857357)scale(0.6417129487814525)"><g class="vtree-node" transform="translate(480,218)"><g class="vtree-node" transform="translate(-8,0)"><path class="vtree-link" d="M8,4C8,53 614,53 614,102"/><path class="vtree-link" d="M8,4C8,53 382,53 382,102"/><path class="vtree-link" d="M8,4C8,53 145,53 145,102"/><path class="vtree-link" d="M8,4C8,53 -113,53 -113,102"/><path class="vtree-link" d="M8,4C8,53 -366,53 -366,102"/><path class="vtree-link" d="M8,4C8,53 -598,53 -598,102"/><g class="vtree-node" transform="translate(-709,58)"><path class="vtree-link" d="M111,44C111,109 111,109 111,174"/><g class="vtree-node" transform="translate(29,118)"><g transform="translate(0,20)"><g transform="translate(0,0)"><rect class="string-text" x="0" y="0" width="90" height="24"/><text x="4" y="20">n_estimators</text></g><g transform="translate(90,0)"><rect class="number-text" x="0" y="0" width="74" height="24"/><text x="4" y="20">150</text></g><g transform="translate(0,24)"><rect class="string-text" x="0" y="0" width="90" height="24"/><text x="4" y="20">learning_rate</text></g><g transform="translate(90,24)"><rect class="number-text" x="0" y="0" width="74" height="24"/><text x="4" y="20">0.1</text></g><g transform="translate(0,48)"><rect class="string-text" x="0" y="0" width="90" height="24"/><text x="4" y="20">algorithm</text></g><g transform="translate(90,48)"><rect class="string-text" x="0" y="0" width="74" height="24"/><text x="4" y="20">SAMME.R</text></g></g><g><text x="82" y="16" text-anchor="middle">best_params</text></g></g><g transform="translate(0,20)"><g transform="translate(0,0)"><rect class="string-text" x="0" y="0" width="77" height="24"/><text x="4" y="20">resampling</text></g><g transform="translate(77,0)"><rect class="number-text" x="0" y="0" width="145" height="24"/><text x="4" y="20">0</text></g><g transform="translate(0,24)"><rect class="string-text" x="0" y="0" width="77" height="24"/><text x="4" y="20">score</text></g><g transform="translate(77,24)"><rect class="number-text" x="0" y="0" width="145" height="24"/><text x="4" y="20">0.8003441207128194</text></g></g><g><text x="111" y="16" text-anchor="middle">AdaBoostModel</text></g></g><g class="vtree-node" transform="translate(-477,58)"><path class="vtree-link" d="M111,44C111,133 111,133 111,222"/><g class="vtree-node" transform="translate(36,118)"><g transform="translate(0,20)"><g transform="translate(0,0)"><rect class="string-text" x="0" y="0" width="91" height="24"/><text x="4" y="20">iterations</text></g><g transform="translate(91,0)"><rect class="number-text" x="0" y="0" width="59" height="24"/><text x="4" y="20">100</text></g><g transform="translate(0,24)"><rect class="string-text" x="0" y="0" width="91" height="24"/><text x="4" y="20">learning_rate</text></g><g transform="translate(91,24)"><rect class="number-text" x="0" y="0" width="59" height="24"/><text x="4" y="20">0.1</text></g><g transform="translate(0,48)"><rect class="string-text" x="0" y="0" width="91" height="24"/><text x="4" y="20">depth</text></g><g transform="translate(91,48)"><rect class="number-text" x="0" y="0" width="59" height="24"/><text x="4" y="20">3</text></g><g transform="translate(0,72)"><rect class="string-text" x="0" y="0" width="91" height="24"/><text x="4" y="20">l2_leaf_reg</text></g><g transform="translate(91,72)"><rect class="number-text" x="0" y="0" width="59" height="24"/><text x="4" y="20">0.00001</text></g><g transform="translate(0,96)"><rect class="string-text" x="0" y="0" width="91" height="24"/><text x="4" y="20">border_count</text></g><g transform="translate(91,96)"><rect class="number-text" x="0" y="0" width="59" height="24"/><text x="4" y="20">32</text></g><g transform="translate(0,120)"><rect class="string-text" x="0" y="0" width="91" height="24"/><text x="4" y="20">loss_function</text></g><g transform="translate(91,120)"><rect class="string-text" x="0" y="0" width="59" height="24"/><text x="4" y="20">Logloss</text></g><g transform="translate(0,144)"><rect class="string-text" x="0" y="0" width="91" height="24"/><text x="4" y="20">eval_metric</text></g><g transform="translate(91,144)"><rect class="string-text" x="0" y="0" width="59" height="24"/><text x="4" y="20">AUC</text></g></g><g><text x="75" y="16" text-anchor="middle">best_params</text></g></g><g transform="translate(0,20)"><g transform="translate(0,0)"><rect class="string-text" x="0" y="0" width="77" height="24"/><text x="4" y="20">resampling</text></g><g transform="translate(77,0)"><rect class="number-text" x="0" y="0" width="145" height="24"/><text x="4" y="20">0</text></g><g transform="translate(0,24)"><rect class="string-text" x="0" y="0" width="77" height="24"/><text x="4" y="20">score</text></g><g transform="translate(77,24)"><rect class="number-text" x="0" y="0" width="145" height="24"/><text x="4" y="20">0.8068206482181708</text></g></g><g><text x="111" y="16" text-anchor="middle">CatBoostModel</text></g></g><g class="vtree-node" transform="translate(-224,58)"><path class="vtree-link" d="M111,44C111,121 111,121 111,198"/><g class="vtree-node" transform="translate(-21,118)"><g transform="translate(0,20)"><g transform="translate(0,0)"><rect class="string-text" x="0" y="0" width="118" height="24"/><text x="4" y="20">max_depth</text></g><g transform="translate(118,0)"><rect class="number-text" x="0" y="0" width="145" height="24"/><text x="4" y="20">3</text></g><g transform="translate(0,24)"><rect class="string-text" x="0" y="0" width="118" height="24"/><text x="4" y="20">learning_rate</text></g><g transform="translate(118,24)"><rect class="number-text" x="0" y="0" width="145" height="24"/><text x="4" y="20">0.1</text></g><g transform="translate(0,48)"><rect class="string-text" x="0" y="0" width="118" height="24"/><text x="4" y="20">n_estimators</text></g><g transform="translate(118,48)"><rect class="number-text" x="0" y="0" width="145" height="24"/><text x="4" y="20">50</text></g><g transform="translate(0,72)"><rect class="string-text" x="0" y="0" width="118" height="24"/><text x="4" y="20">subsample</text></g><g transform="translate(118,72)"><rect class="number-text" x="0" y="0" width="145" height="24"/><text x="4" y="20">0.5</text></g><g transform="translate(0,96)"><rect class="string-text" x="0" y="0" width="118" height="24"/><text x="4" y="20">colsample_bytree</text></g><g transform="translate(118,96)"><rect class="number-text" x="0" y="0" width="145" height="24"/><text x="4" y="20">0.7999999999999999</text></g></g><g><text x="132" y="16" text-anchor="middle">best_params</text></g></g><g transform="translate(0,20)"><g transform="translate(0,0)"><rect class="string-text" x="0" y="0" width="77" height="24"/><text x="4" y="20">resampling</text></g><g transform="translate(77,0)"><rect class="number-text" x="0" y="0" width="145" height="24"/><text x="4" y="20">1</text></g><g transform="translate(0,24)"><rect class="string-text" x="0" y="0" width="77" height="24"/><text x="4" y="20">score</text></g><g transform="translate(77,24)"><rect class="number-text" x="0" y="0" width="145" height="24"/><text x="4" y="20">0.8023536277569565</text></g></g><g><text x="111" y="16" text-anchor="middle">XGBoostModel</text></g></g><g class="vtree-node" transform="translate(34,58)"><path class="vtree-link" d="M111,44C111,127 111,127 111,210"/><g class="vtree-node" transform="translate(-6,118)"><g transform="translate(0,20)"><g transform="translate(0,0)"><rect class="string-text" x="0" y="0" width="153" height="24"/><text x="4" y="20">loss</text></g><g transform="translate(153,0)"><rect class="string-text" x="0" y="0" width="80" height="24"/><text x="4" y="20">exponential</text></g><g transform="translate(0,24)"><rect class="string-text" x="0" y="0" width="153" height="24"/><text x="4" y="20">learning_rate</text></g><g transform="translate(153,24)"><rect class="number-text" x="0" y="0" width="80" height="24"/><text x="4" y="20">0.1</text></g><g transform="translate(0,48)"><rect class="string-text" x="0" y="0" width="153" height="24"/><text x="4" y="20">n_estimators</text></g><g transform="translate(153,48)"><rect class="number-text" x="0" y="0" width="80" height="24"/><text x="4" y="20">100</text></g><g transform="translate(0,72)"><rect class="string-text" x="0" y="0" width="153" height="24"/><text x="4" y="20">max_depth</text></g><g transform="translate(153,72)"><rect class="number-text" x="0" y="0" width="80" height="24"/><text x="4" y="20">3</text></g><g transform="translate(0,96)"><rect class="string-text" x="0" y="0" width="153" height="24"/><text x="4" y="20">min_samples_split</text></g><g transform="translate(153,96)"><rect class="number-text" x="0" y="0" width="80" height="24"/><text x="4" y="20">6</text></g><g transform="translate(0,120)"><rect class="string-text" x="0" y="0" width="153" height="24"/><text x="4" y="20">min_impurity_decrease</text></g><g transform="translate(153,120)"><rect class="number-text" x="0" y="0" width="80" height="24"/><text x="4" y="20">0.001</text></g></g><g><text x="117" y="16" text-anchor="middle">best_params</text></g></g><g transform="translate(0,20)"><g transform="translate(0,0)"><rect class="string-text" x="0" y="0" width="77" height="24"/><text x="4" y="20">resampling</text></g><g transform="translate(77,0)"><rect class="number-text" x="0" y="0" width="145" height="24"/><text x="4" y="20">0</text></g><g transform="translate(0,24)"><rect class="string-text" x="0" y="0" width="77" height="24"/><text x="4" y="20">score</text></g><g transform="translate(77,24)"><rect class="number-text" x="0" y="0" width="145" height="24"/><text x="4" y="20">0.8036235934165168</text></g></g><g><text x="111" y="16" text-anchor="middle">GradientBoostingModel</text></g></g><g class="vtree-node" transform="translate(271,58)"><path class="vtree-link" d="M111,44C111,121 111,121 111,198"/><g class="vtree-node" transform="translate(5,118)"><g transform="translate(0,20)"><g transform="translate(0,0)"><rect class="string-text" x="0" y="0" width="153" height="24"/><text x="4" y="20">n_estimators</text></g><g transform="translate(153,0)"><rect class="number-text" x="0" y="0" width="59" height="24"/><text x="4" y="20">50</text></g><g transform="translate(0,24)"><rect class="string-text" x="0" y="0" width="153" height="24"/><text x="4" y="20">criterion</text></g><g transform="translate(153,24)"><rect class="string-text" x="0" y="0" width="59" height="24"/><text x="4" y="20">gini</text></g><g transform="translate(0,48)"><rect class="string-text" x="0" y="0" width="153" height="24"/><text x="4" y="20">max_depth</text></g><g transform="translate(153,48)"><rect class="number-text" x="0" y="0" width="59" height="24"/><text x="4" y="20">8</text></g><g transform="translate(0,72)"><rect class="string-text" x="0" y="0" width="153" height="24"/><text x="4" y="20">min_samples_split</text></g><g transform="translate(153,72)"><rect class="number-text" x="0" y="0" width="59" height="24"/><text x="4" y="20">9</text></g><g transform="translate(0,96)"><rect class="string-text" x="0" y="0" width="153" height="24"/><text x="4" y="20">min_impurity_decrease</text></g><g transform="translate(153,96)"><rect class="number-text" x="0" y="0" width="59" height="24"/><text x="4" y="20">0.00001</text></g></g><g><text x="106" y="16" text-anchor="middle">best_params</text></g></g><g transform="translate(0,20)"><g transform="translate(0,0)"><rect class="string-text" x="0" y="0" width="77" height="24"/><text x="4" y="20">resampling</text></g><g transform="translate(77,0)"><rect class="number-text" x="0" y="0" width="145" height="24"/><text x="4" y="20">0</text></g><g transform="translate(0,24)"><rect class="string-text" x="0" y="0" width="77" height="24"/><text x="4" y="20">score</text></g><g transform="translate(77,24)"><rect class="number-text" x="0" y="0" width="145" height="24"/><text x="4" y="20">0.8000655353200883</text></g></g><g><text x="111" y="16" text-anchor="middle">RandomForestModel</text></g></g><g class="vtree-node" transform="translate(503,58)"><path class="vtree-link" d="M111,44C111,115 111,115 111,186"/><g class="vtree-node" transform="translate(12,118)"><g transform="translate(0,20)"><g transform="translate(0,0)"><rect class="string-text" x="0" y="0" width="153" height="24"/><text x="4" y="20">criterion</text></g><g transform="translate(153,0)"><rect class="string-text" x="0" y="0" width="44" height="24"/><text x="4" y="20">gini</text></g><g transform="translate(0,24)"><rect class="string-text" x="0" y="0" width="153" height="24"/><text x="4" y="20">max_depth</text></g><g transform="translate(153,24)"><rect class="number-text" x="0" y="0" width="44" height="24"/><text x="4" y="20">6</text></g><g transform="translate(0,48)"><rect class="string-text" x="0" y="0" width="153" height="24"/><text x="4" y="20">min_samples_split</text></g><g transform="translate(153,48)"><rect class="number-text" x="0" y="0" width="44" height="24"/><text x="4" y="20">9</text></g><g transform="translate(0,72)"><rect class="string-text" x="0" y="0" width="153" height="24"/><text x="4" y="20">min_impurity_decrease</text></g><g transform="translate(153,72)"><rect class="number-text" x="0" y="0" width="44" height="24"/><text x="4" y="20">0.001</text></g></g><g><text x="99" y="16" text-anchor="middle">best_params</text></g></g><g transform="translate(0,20)"><g transform="translate(0,0)"><rect class="string-text" x="0" y="0" width="77" height="24"/><text x="4" y="20">resampling</text></g><g transform="translate(77,0)"><rect class="number-text" x="0" y="0" width="145" height="24"/><text x="4" y="20">0</text></g><g transform="translate(0,24)"><rect class="string-text" x="0" y="0" width="77" height="24"/><text x="4" y="20">score</text></g><g transform="translate(77,24)"><rect class="number-text" x="0" y="0" width="145" height="24"/><text x="4" y="20">0.8022456088731349</text></g></g><g><text x="111" y="16" text-anchor="middle">DecisionTreeModel</text></g></g><g transform="translate(0,0)"><rect class="string-text" x="0" y="0" width="8" height="8"/><text x="4" y="4"> </text></g><g transform="translate(8,0)"><rect class="string-text" x="0" y="0" width="8" height="8"/><text x="4" y="4"> </text></g></g></g></g></svg>